<svg xmlns="http://www.w3.org/2000/svg" viewBox="0 0 11.7354 10.9134">
    <title>Recurso 12</title>
    <g id="Capa_2" data-name="Capa 2">
        <g id="Capa_1-2" data-name="Capa 1">
            <path d="M1.5449,4.2945c.822,0,1.474-.9354,1.474-2.0977S2.3669.0992,1.5449.0992C.7512.0992.0992,1.0346.0992,2.1968s.652,2.0977,1.4457,2.0977Z"
                  fill="#151515" stroke="#151515" stroke-miterlimit="10" stroke-width="0.1984" fill-rule="evenodd"/>
            <path d="M1.6016,3.8409c.3968,0,.7086-.4252.7086-.9921,0-.5386-.3118-.9921-.7086-.9921-.3685,0-.68.4535-.68.9921,0,.5669.3118.9921.68.9921Z"
                  fill="#fff" stroke="#151515" stroke-miterlimit="10" stroke-width="0.1984" fill-rule="evenodd"/>
            <polygon
                    points="1.545 0.383 1.8 0.553 2.055 0.723 2.055 1.063 2.055 1.375 1.8 1.545 1.545 1.715 1.29 1.545 1.035 1.375 1.035 1.063 1.035 0.723 1.29 0.553 1.545 0.383"
                    fill="#fff" stroke="#151515" stroke-miterlimit="10" stroke-width="0.1984" fill-rule="evenodd"/>
            <path d="M1.63,3.0756l.1134-.085c.085-.0567.17-.0567.1984-.0284l1.304,1.8425c.0283.0284-.0284.1134-.0851.17l-.2834.17c-.0567.0567-.1418.085-.17.0283L1.46,3.4157c-.0567-.085,0-.2267.17-.34Z"
                  fill="#151515" stroke="#151515" stroke-miterlimit="10" stroke-width="0.1984" fill-rule="evenodd"/>
            <path d="M10.1622,10.8142A1.46,1.46,0,1,0,8.7165,9.34a1.4639,1.4639,0,0,0,1.4457,1.474Z" fill="#151515"
                  stroke="#151515" stroke-miterlimit="10" stroke-width="0.1984" fill-rule="evenodd"/>
            <path d="M10.1906,10.3039a1.01,1.01,0,0,0,.9921-1.02,1.0064,1.0064,0,0,0-2.0126,0,1.0162,1.0162,0,0,0,1.0205,1.02Z"
                  fill="#fff" stroke="#151515" stroke-miterlimit="10" stroke-width="0.1984" fill-rule="evenodd"/>
            <path d="M10.0772,7.611c.7937,0,1.4456-.9638,1.4456-2.0976,0-1.1622-.6519-2.0977-1.4456-2.0977-.8221,0-1.4741.9355-1.4741,2.0977,0,1.1338.652,2.0976,1.4741,2.0976Z"
                  fill="#151515" stroke="#151515" stroke-miterlimit="10" stroke-width="0.1984" fill-rule="evenodd"/>
            <path d="M10.1339,7.1575c.3685,0,.68-.4536.68-.9921s-.3118-.9922-.68-.9922c-.3969,0-.7087.4536-.7087.9922s.3118.9921.7087.9921Z"
                  fill="#fff" stroke="#151515" stroke-miterlimit="10" stroke-width="0.1984" fill-rule="evenodd"/>
            <polygon
                    points="10.049 3.699 10.304 3.869 10.559 4.039 10.559 4.351 10.559 4.691 10.304 4.861 10.049 5.031 9.794 4.861 9.539 4.691 9.539 4.351 9.539 4.039 9.794 3.869 10.049 3.699"
                    fill="#fff" stroke="#151515" stroke-miterlimit="10" stroke-width="0.1984" fill-rule="evenodd"/>
            <path d="M10.1055,6.4488h.17c.085,0,.17.0567.17.0851V8.8016c0,.0283-.0851.085-.17.085h-.34c-.085,0-.1417-.0567-.1417-.085V6.6189c0-.085.1417-.17.3118-.17Z"
                  fill="#151515" stroke="#151515" stroke-miterlimit="10" stroke-width="0.1984" fill-rule="evenodd"/>
            <path d="M2.65,4.3228c.3685-.1984,1.0205.2552,1.474,1.0489.4252.7937.4536,1.6157.085,1.8141-.3968.2268-1.0488-.2551-1.474-1.0488C2.2819,5.3433,2.2535,4.55,2.65,4.3228"
                  fill="none" stroke="#151515" stroke-miterlimit="10" stroke-width="0.737"/>
            <path d="M3.7276,6.3921,3.8409,6.25c.0567-.0567.1418-.1134.17-.0567L5.74,7.611c.0566.0284.0283.1134-.0284.17l-.1984.2551c-.0567.0851-.1417.1134-.17.0851L3.6709,6.7323c-.0851-.0567-.0567-.2268.0567-.34Z"
                  fill="#151515" stroke="#151515" stroke-miterlimit="10" stroke-width="0.1984" fill-rule="evenodd"/>
            <path d="M4.9181,7.526c.17-.3969.9921-.4252,1.8142-.0284.822.3685,1.3323.9922,1.1338,1.389-.17.3969-.9921.4252-1.8141.0284C5.2583,8.5465,4.72,7.9228,4.9181,7.526"
                  fill="none" stroke="#151515" stroke-miterlimit="10" stroke-width="0.737"/>
            <path d="M7.2709,8.4047l.0567-.1417c.0283-.085.085-.1417.1417-.1417l2.0693.907a.233.233,0,0,1,0,.1985L9.4252,9.51c-.0567.0851-.1134.1418-.17.1134l-1.9842-.85c-.0851-.0283-.0851-.1984,0-.3685Z"
                  fill="#151515" stroke="#151515" stroke-miterlimit="10" stroke-width="0.1984" fill-rule="evenodd"/>
        </g>
    </g>
</svg>