<svg xmlns="http://www.w3.org/2000/svg" viewBox="0 0 12.0123 15.4913">
    <title>Recurso 10</title>
    <g id="Capa_2" data-name="Capa 2">
        <g id="Capa_1-2" data-name="Capa 1">
            <path d="M1.5591,4.3087c.822,0,1.474-.9355,1.474-2.0977S2.3811.1134,1.5591.1134C.7654.1134.1134,1.0488.1134,2.211s.652,2.0977,1.4457,2.0977Z"
                  fill="#151515" stroke="#151515" stroke-miterlimit="10" stroke-width="0.2268" fill-rule="evenodd"/>
            <path d="M1.6157,3.8551c.3969,0,.7087-.4252.7087-.9921,0-.5386-.3118-.9921-.7087-.9921-.3685,0-.68.4535-.68.9921,0,.5669.3118.9921.68.9921Z"
                  fill="#fff" stroke="#151515" stroke-miterlimit="10" stroke-width="0.2268" fill-rule="evenodd"/>
            <polygon
                    points="1.559 0.397 1.814 0.567 2.069 0.737 2.069 1.077 2.069 1.389 1.814 1.559 1.559 1.729 1.304 1.559 1.049 1.389 1.049 1.077 1.049 0.737 1.304 0.567 1.559 0.397"
                    fill="#fff" stroke="#151515" stroke-miterlimit="10" stroke-width="0.2268" fill-rule="evenodd"/>
            <path d="M1.6441,3.09l.1134-.0851c.085-.0567.17-.0567.1984-.0283L3.26,4.8189c.0284.0283-.0283.1134-.085.17l-.2835.17c-.0567.0566-.1417.085-.17.0283L1.474,3.43c-.0567-.085,0-.2268.17-.34Z"
                  fill="#151515" stroke="#151515" stroke-miterlimit="10" stroke-width="0.2268" fill-rule="evenodd"/>
            <path d="M10.1764,10.8283a1.46,1.46,0,1,0-1.4457-1.474,1.4639,1.4639,0,0,0,1.4457,1.474Z" fill="#151515"
                  stroke="#151515" stroke-miterlimit="10" stroke-width="0.2268" fill-rule="evenodd"/>
            <path d="M10.2047,10.3181a1.01,1.01,0,0,0,.9921-1.0205,1.0063,1.0063,0,0,0-2.0125,0,1.0162,1.0162,0,0,0,1.02,1.0205Z"
                  fill="#fff" stroke="#151515" stroke-miterlimit="10" stroke-width="0.2268" fill-rule="evenodd"/>
            <path d="M10.0913,7.6252c.7937,0,1.4457-.9638,1.4457-2.0976,0-1.1622-.652-2.0977-1.4457-2.0977-.822,0-1.474.9355-1.474,2.0977,0,1.1338.652,2.0976,1.474,2.0976Z"
                  fill="#151515" stroke="#151515" stroke-miterlimit="10" stroke-width="0.2268" fill-rule="evenodd"/>
            <path d="M10.148,7.1717c.3685,0,.68-.4536.68-.9922s-.3118-.9921-.68-.9921c-.3968,0-.7086.4535-.7086.9921s.3118.9922.7086.9922Z"
                  fill="#fff" stroke="#151515" stroke-miterlimit="10" stroke-width="0.2268" fill-rule="evenodd"/>
            <polygon
                    points="10.063 3.713 10.318 3.883 10.573 4.054 10.573 4.365 10.573 4.706 10.318 4.876 10.063 5.046 9.808 4.876 9.553 4.706 9.553 4.365 9.553 4.054 9.808 3.883 10.063 3.713"
                    fill="#fff" stroke="#151515" stroke-miterlimit="10" stroke-width="0.2268" fill-rule="evenodd"/>
            <path d="M10.12,6.463h.17c.085,0,.17.0567.17.085V8.8157c0,.0284-.085.0851-.17.0851H9.95c-.085,0-.1417-.0567-.1417-.0851V6.6331c0-.0851.1417-.17.3118-.17Z"
                  fill="#151515" stroke="#151515" stroke-miterlimit="10" stroke-width="0.2268" fill-rule="evenodd"/>
            <path d="M2.6646,4.337c.3685-.1984,1.02.2551,1.474,1.0488.4252.7937.4535,1.6158.085,1.8142-.3968.2268-1.0488-.2551-1.474-1.0488-.4535-.7937-.4819-1.5874-.085-1.8142"
                  fill="none" stroke="#151515" stroke-miterlimit="10" stroke-width="0.7654"/>
            <path d="M3.7417,6.4063l.1134-.1417c.0567-.0567.1418-.1134.17-.0567L5.7543,7.6252c.0567.0283.0284.1134-.0283.17L5.5276,8.05c-.0567.085-.1418.1134-.17.085L3.685,6.7465c-.085-.0567-.0567-.1985.0567-.34Z"
                  fill="#151515" stroke="#151515" stroke-miterlimit="10" stroke-width="0.2268" fill-rule="evenodd"/>
            <path d="M4.9323,7.54c.17-.3969.9921-.4252,1.8142-.0284.822.3685,1.3322.9921,1.1338,1.389-.17.3968-.9921.4252-1.8142.0283C5.2724,8.5606,4.7339,7.937,4.9323,7.54"
                  fill="none" stroke="#151515" stroke-miterlimit="10" stroke-width="0.7654"/>
            <path d="M7.285,8.4189l.0567-.1417c.0284-.0851.0851-.1418.1418-.1418l2.0693.9071a.2328.2328,0,0,1,0,.1984l-.1134.2835c-.0567.085-.1134.1417-.17.1134l-1.9843-.85c-.085-.0283-.085-.1984,0-.3685Z"
                  fill="#151515" stroke="#151515" stroke-miterlimit="10" stroke-width="0.2268" fill-rule="evenodd"/>
            <path d="M10.1764,10.148c.6519,0,1.3039,2.0693,1.3039,2.863s-.6236,2.0977-1.2756,2.0977c-.68,0-1.02-.68-1.02-1.4741,0-.822.3118-3.4866.9921-3.4866"
                  fill="none" stroke="#151515" stroke-miterlimit="10" stroke-width="0.7654"/>
            <polygon points="10.488 10.913 11.254 10.658 11.877 13.153 11.14 13.408 10.488 10.913" fill="#f4e68c"
                     stroke="#151515" stroke-miterlimit="10" stroke-width="0.2268" fill-rule="evenodd"/>
            <path d="M10.97,11.14a.0991.0991,0,0,0,.0567-.0284.0611.0611,0,0,0-.0567-.0567c-.0284,0-.0284.0284-.0284.0567a.0278.0278,0,0,0,.0284.0284Z"
                  fill="#151515" stroke="#151515" stroke-miterlimit="10" stroke-width="0.2268" fill-rule="evenodd"/>
            <path d="M11.452,12.8409c.0283,0,.0283,0,.0283-.0283s0-.0567-.0283-.0567a.061.061,0,0,0-.0567.0567c0,.0283.0283.0283.0567.0283Z"
                  fill="#151515" stroke="#151515" stroke-miterlimit="10" stroke-width="0.2268" fill-rule="evenodd"/>
        </g>
    </g>
</svg>