<svg xmlns="http://www.w3.org/2000/svg" viewBox="0 0 8.5523 17.8016">
    <title>Estrips</title>
    <g id="Capa_2" data-name="Capa 2">
        <g id="Capa_1-2" data-name="Capa 1">
            <polygon points="1.742 1.233 2.365 3.019 3.017 4.776 1.742 4.776 0.494 4.776 1.118 3.019 1.742 1.233"
                     fill="none" stroke="#d8d9d9" stroke-miterlimit="10" stroke-width="0.4535"/>
            <path d="M1.7415.2126c.1134,0,.1984.2268.1984.51s-.085.51-.1984.51-.1984-.2268-.1984-.51.085-.51.1984-.51"
                  fill="none" stroke="#d8d9d9" stroke-miterlimit="10" stroke-width="0.2551"/>
            <line x1="0.4943" y1="9.6803" x2="3.0171" y2="9.6803" fill="none" stroke="#d8d9d9" stroke-miterlimit="10"
                  stroke-width="0.7937"/>
            <line x1="0.5226" y1="7.0724" x2="3.0455" y2="7.0724" fill="none" stroke="#d8d9d9" stroke-miterlimit="10"
                  stroke-width="0.7937"/>
            <line x1="0.551" y1="12.7701" x2="3.0738" y2="12.7701" fill="none" stroke="#d8d9d9" stroke-miterlimit="10"
                  stroke-width="0.7937"/>
            <path d="M3.0171,16.1717A1.3037,1.3037,0,0,1,1.77,17.5323,1.3227,1.3227,0,0,1,.5226,16.1717" fill="none"
                  stroke="#d8d9d9" stroke-miterlimit="10" stroke-width="0.3685"/>
            <line x1="0.5226" y1="16.2" x2="0.4943" y2="4.8047" fill="none" stroke="#d8d9d9" stroke-miterlimit="10"
                  stroke-width="0.3969"/>
            <line x1="3.0171" y1="16.2" x2="3.0171" y2="4.8047" fill="none" stroke="#d8d9d9" stroke-miterlimit="10"
                  stroke-width="0.3969"/>
            <line x1="0.551" y1="15.9449" x2="3.0738" y2="15.9165" fill="none" stroke="#d8d9d9" stroke-miterlimit="10"
                  stroke-width="0.7937"/>
            <line x1="0.5226" y1="4.7764" x2="3.0455" y2="4.7764" fill="none" stroke="#d8d9d9" stroke-miterlimit="10"
                  stroke-width="0.7937"/>
            <polygon points="1.6 1.318 2.223 3.104 2.847 4.861 1.6 4.89 0.324 4.89 0.976 3.104 1.6 1.318" fill="none"
                     stroke="#548477" stroke-miterlimit="10" stroke-width="0.4535"/>
            <path d="M1.5714.2976c.1134,0,.1985.2268.1985.51s-.0851.51-.1985.51-.1984-.2268-.1984-.51.0851-.51.1984-.51"
                  fill="none" stroke="#696867" stroke-miterlimit="10" stroke-width="0.2551"/>
            <line x1="0.3525" y1="9.7654" x2="2.847" y2="9.7654" fill="none" stroke="#afafb0" stroke-miterlimit="10"
                  stroke-width="0.7937"/>
            <line x1="0.3809" y1="7.1858" x2="2.9037" y2="7.1575" fill="none" stroke="#afafb0" stroke-miterlimit="10"
                  stroke-width="0.7937"/>
            <line x1="0.3809" y1="12.8551" x2="2.9037" y2="12.8551" fill="none" stroke="#afafb0" stroke-miterlimit="10"
                  stroke-width="0.7937"/>
            <path d="M2.8754,16.2567a1.3226,1.3226,0,0,1-1.2473,1.3606A1.3089,1.3089,0,0,1,.3525,16.2567" fill="none"
                  stroke="#548477" stroke-miterlimit="10" stroke-width="0.3685"/>
            <line x1="0.3525" y1="16.285" x2="0.3242" y2="4.8898" fill="none" stroke="#548477" stroke-miterlimit="10"
                  stroke-width="0.3969"/>
            <line x1="2.8754" y1="16.285" x2="2.847" y2="4.8898" fill="none" stroke="#548477" stroke-miterlimit="10"
                  stroke-width="0.3969"/>
            <line x1="0.4092" y1="16.0299" x2="2.9037" y2="16.0299" fill="none" stroke="#afafb0" stroke-miterlimit="10"
                  stroke-width="0.7937"/>
            <line x1="0.3809" y1="4.8614" x2="2.9037" y2="4.8614" fill="none" stroke="#afafb0" stroke-miterlimit="10"
                  stroke-width="0.7937"/>
            <polygon points="6.957 1.148 7.609 2.906 8.233 4.691 6.986 4.691 5.71 4.691 6.334 2.934 6.957 1.148"
                     fill="none" stroke="#d8d9d9" stroke-miterlimit="10" stroke-width="0.4535"/>
            <path d="M6.9573.1276c.1134,0,.1984.2267.1984.51s-.085.51-.1984.51-.1985-.2267-.1985-.51.0851-.51.1985-.51"
                  fill="none" stroke="#d8d9d9" stroke-miterlimit="10" stroke-width="0.2551"/>
            <line x1="5.7384" y1="9.5953" x2="8.2329" y2="9.5669" fill="none" stroke="#d8d9d9" stroke-miterlimit="10"
                  stroke-width="0.7937"/>
            <line x1="5.7667" y1="6.9874" x2="8.2612" y2="6.9874" fill="none" stroke="#d8d9d9" stroke-miterlimit="10"
                  stroke-width="0.7937"/>
            <line x1="5.7667" y1="12.685" x2="8.2896" y2="12.685" fill="none" stroke="#d8d9d9" stroke-miterlimit="10"
                  stroke-width="0.7937"/>
            <path d="M8.2612,16.0866A1.3416,1.3416,0,0,1,7.014,17.4472a1.3266,1.3266,0,0,1-1.2756-1.3606" fill="none"
                  stroke="#d8d9d9" stroke-miterlimit="10" stroke-width="0.3685"/>
            <line x1="5.7384" y1="16.115" x2="5.71" y2="4.7197" fill="none" stroke="#d8d9d9" stroke-miterlimit="10"
                  stroke-width="0.3969"/>
            <line x1="8.2612" y1="16.0866" x2="8.2329" y2="4.7197" fill="none" stroke="#d8d9d9" stroke-miterlimit="10"
                  stroke-width="0.3969"/>
            <line x1="5.7951" y1="15.8315" x2="8.2896" y2="15.8315" fill="none" stroke="#d8d9d9" stroke-miterlimit="10"
                  stroke-width="0.7937"/>
            <line x1="5.7667" y1="4.6913" x2="8.2612" y2="4.663" fill="none" stroke="#d8d9d9" stroke-miterlimit="10"
                  stroke-width="0.7937"/>
            <polygon points="6.816 1.233 7.439 3.019 8.063 4.776 6.816 4.776 5.568 4.776 6.192 3.019 6.816 1.233"
                     fill="none" stroke="#548477" stroke-miterlimit="10" stroke-width="0.4535"/>
            <path d="M6.8155.2126c.1134,0,.1985.2268.1985.51s-.0851.51-.1985.51-.1984-.2268-.1984-.51.0851-.51.1984-.51"
                  fill="none" stroke="#696867" stroke-miterlimit="10" stroke-width="0.2551"/>
            <line x1="5.5683" y1="9.6803" x2="8.0911" y2="9.6803" fill="none" stroke="#afafb0" stroke-miterlimit="10"
                  stroke-width="0.7937"/>
            <line x1="5.5966" y1="7.0724" x2="8.1195" y2="7.0724" fill="none" stroke="#afafb0" stroke-miterlimit="10"
                  stroke-width="0.7937"/>
            <line x1="5.625" y1="12.7701" x2="8.1195" y2="12.7701" fill="none" stroke="#afafb0" stroke-miterlimit="10"
                  stroke-width="0.7937"/>
            <path d="M8.0911,16.1717a1.3037,1.3037,0,0,1-1.2472,1.3606,1.3227,1.3227,0,0,1-1.2473-1.3606" fill="none"
                  stroke="#548477" stroke-miterlimit="10" stroke-width="0.3685"/>
            <line x1="5.5966" y1="16.2" x2="5.5683" y2="4.8047" fill="none" stroke="#548477" stroke-miterlimit="10"
                  stroke-width="0.3969"/>
            <line x1="8.0911" y1="16.2" x2="8.0628" y2="4.8047" fill="none" stroke="#548477" stroke-miterlimit="10"
                  stroke-width="0.3969"/>
            <line x1="5.625" y1="15.9449" x2="8.1478" y2="15.9165" fill="none" stroke="#afafb0" stroke-miterlimit="10"
                  stroke-width="0.7937"/>
            <line x1="5.5966" y1="4.7764" x2="8.1195" y2="4.7764" fill="none" stroke="#afafb0" stroke-miterlimit="10"
                  stroke-width="0.7937"/>
        </g>
    </g>
</svg>