<?xml version="1.0" encoding="UTF-8" standalone="no"?>
<!-- Created with Inkscape (http://www.inkscape.org/) -->

<svg
        xmlns:dc="http://purl.org/dc/elements/1.1/"
        xmlns:cc="http://creativecommons.org/ns#"
        xmlns:rdf="http://www.w3.org/1999/02/22-rdf-syntax-ns#"
        xmlns:sodipodi="http://sodipodi.sourceforge.net/DTD/sodipodi-0.dtd"
        xmlns:inkscape="http://www.inkscape.org/namespaces/inkscape"
        xmlns="http://www.w3.org/2000/svg"
        version="1.1"
        id="svg2"
        xml:space="preserve"
        width="65"
        height="65"
        viewBox="0 0 65 65.000001"
        sodipodi:docname="Express.svg"
        inkscape:version="0.92.4 (5da689c313, 2019-01-14)"><metadata
     id="metadata8"><rdf:RDF><cc:Work
         rdf:about=""><dc:format>image/svg+xml</dc:format><dc:type
        rdf:resource="http://purl.org/dc/dcmitype/StillImage"/><dc:title></dc:title></cc:Work></rdf:RDF></metadata>
    <defs
            id="defs6"><clipPath
       clipPathUnits="userSpaceOnUse"
       id="clipPath22"><path
         d="M 0,510.236 H 680.315 V 0 H 0 Z"
         id="path20"
         inkscape:connector-curvature="0" /></clipPath></defs>
    <sodipodi:namedview
            pagecolor="#ffffff"
            bordercolor="#666666"
            borderopacity="1"
            objecttolerance="10"
            gridtolerance="10"
            guidetolerance="10"
            inkscape:pageopacity="0"
            inkscape:pageshadow="2"
            inkscape:window-width="1920"
            inkscape:window-height="1017"
            id="namedview4"
            showgrid="false"
            inkscape:zoom="7.8494121"
            inkscape:cx="40.814749"
            inkscape:cy="26.792372"
            inkscape:window-x="1592"
            inkscape:window-y="-8"
            inkscape:window-maximized="1"
            inkscape:current-layer="g18"/>
    <g
            id="g10"
            inkscape:groupmode="layer"
            inkscape:label="Icones illustrator"
            transform="matrix(1.3333333,0,0,-1.3333333,-305.14884,342.61065)"><g
       id="g16"><g
         id="g18"
         clip-path="url(#clipPath22)"><path
           style="fill:#0e0e0f;fill-opacity:1;stroke:none;stroke-width:2.82366347;stroke-linecap:butt;stroke-linejoin:round;stroke-miterlimit:22.92560005;stroke-dasharray:none;stroke-opacity:1"
           d="m 264.67782,254.98811 c 1.41734,-1.47654 1.89064,-3.70867 1.02713,-5.71236 l -2.4235,-5.62199 c -1.15134,-2.67159 -4.22944,-3.89478 -6.90103,-2.74344 -2.67159,1.15136 -3.89583,4.22841 -2.74449,6.90001 l 2.4235,5.62198 c 1.15136,2.67159 4.22842,3.89584 6.90001,2.74449 0.6679,-0.28784 1.24595,-0.69651 1.71838,-1.18869 z m -1.25164,-1.80899 c -0.35943,0.36866 -0.79789,0.67234 -1.30359,0.88569 -2.02286,0.85342 -4.33913,-0.0871 -5.19256,-2.11 l -1.76978,-4.19515 c -0.85342,-2.02285 0.0882,-4.33811 2.11104,-5.19152 2.02285,-0.85342 4.33914,0.0871 5.19255,2.11 l 1.7698,4.19515 c 0.64005,1.51713 0.27072,3.19973 -0.80746,4.30583 z"
           id="rect874-2"
           inkscape:connector-curvature="0" /><path
            style="fill:#0e0e0f;fill-opacity:1;stroke:none;stroke-width:2.82366347;stroke-linecap:butt;stroke-linejoin:round;stroke-miterlimit:22.92560005;stroke-dasharray:none;stroke-opacity:1"
            d="m 247.28059,224.38564 c -2.04657,-0.0239 -3.97044,-1.25074 -4.79444,-3.271 l -2.31152,-5.66895 c -1.09867,-2.69368 0.1862,-5.74655 2.87988,-6.84521 2.69369,-1.09866 5.74655,0.18473 6.84522,2.87842 l 2.31152,5.66894 c 1.09866,2.69369 -0.18473,5.74656 -2.87842,6.84522 -0.67342,0.27466 -1.37006,0.40055 -2.05224,0.39258 z m -0.41309,-2.16065 c 0.51488,0.002 1.03879,-0.0979 1.54541,-0.30908 2.02649,-0.84474 2.97901,-3.15613 2.13428,-5.18262 l -1.75196,-4.20263 c -0.84473,-2.02649 -3.15613,-2.97755 -5.18261,-2.13282 -2.02649,0.84474 -2.97902,3.15613 -2.13428,5.18262 l 1.75195,4.20264 c 0.63355,1.51986 2.09258,2.4357 3.63721,2.44189 z"
            id="rect874"
            inkscape:connector-curvature="0"/><g
            id="g1876"
            transform="translate(262.89134,256.2137)"><path
             d="m 0,0 c 2.665,-1.105 3.94,-4.167 2.835,-6.832 l -2.353,-5.697 c -1.106,-2.665 -4.167,-3.941 -6.832,-2.835 -2.636,1.105 -3.911,4.195 -2.834,6.832 l 2.381,5.697 C -5.726,-0.17 -2.636,1.105 0,0 Z"
             style="fill:none;stroke:#0e0e0f;stroke-width:0.198;stroke-linecap:butt;stroke-linejoin:miter;stroke-miterlimit:10;stroke-dasharray:none;stroke-opacity:1"
             id="path1878"
             inkscape:connector-curvature="0" /></g><g
            id="g1884"
            transform="translate(262.06954,254.0878)"><path
             d="M 0,0 C 1.984,-0.822 2.948,-3.118 2.126,-5.103 L 0.34,-9.383 c -0.822,-1.984 -3.118,-2.948 -5.102,-2.126 -2.013,0.822 -2.948,3.118 -2.126,5.131 l 1.757,4.252 C -4.309,-0.113 -1.984,0.822 0,0 Z"
             style="fill:none;stroke:#0e0e0f;stroke-width:0.198;stroke-linecap:butt;stroke-linejoin:miter;stroke-miterlimit:10;stroke-dasharray:none;stroke-opacity:1"
             id="path1886"
             inkscape:connector-curvature="0" /></g><g
            id="g1888"
            transform="translate(255.69164,253.1806)"><path
             d="m 0,0 1.757,-0.737 -2.579,-6.18 -1.729,0.709 z"
             style="fill:#f9c400;fill-opacity:1;fill-rule:evenodd;stroke:none"
             id="path1890"
             inkscape:connector-curvature="0" /></g><g
            id="g1892"
            transform="translate(255.69164,253.1806)"><path
             d="m 0,0 1.757,-0.737 -2.579,-6.18 -1.729,0.709 z"
             style="fill:none;stroke:#0e0e0f;stroke-width:0.198;stroke-linecap:butt;stroke-linejoin:miter;stroke-miterlimit:10;stroke-dasharray:none;stroke-opacity:1"
             id="path1894"
             inkscape:connector-curvature="0" /></g><g
            id="g1896"
            transform="translate(254.21754,247.3407)"><path
             d="M 0,0 C 0.113,-0.057 0.17,-0.17 0.113,-0.283 0.085,-0.368 -0.057,-0.425 -0.142,-0.396 -0.255,-0.34 -0.284,-0.227 -0.255,-0.113 -0.198,-0.028 -0.085,0.028 0,0"
             style="fill:#0e0e0f;fill-opacity:1;fill-rule:evenodd;stroke:none"
             id="path1898"
             inkscape:connector-curvature="0" /></g><g
            id="g1900"
            transform="translate(254.21754,247.3407)"><path
             d="M 0,0 C 0.113,-0.057 0.17,-0.17 0.113,-0.283 0.085,-0.368 -0.057,-0.425 -0.142,-0.396 -0.255,-0.34 -0.284,-0.227 -0.255,-0.113 -0.198,-0.028 -0.085,0.028 0,0 Z"
             style="fill:none;stroke:#0e0e0f;stroke-width:0.198;stroke-linecap:butt;stroke-linejoin:miter;stroke-miterlimit:10;stroke-dasharray:none;stroke-opacity:1"
             id="path1902"
             inkscape:connector-curvature="0" /></g><g
            id="g1904"
            transform="translate(256.42844,252.3017)"><path
             d="M 0,0 C 0.085,-0.057 0.142,-0.17 0.113,-0.283 0.057,-0.368 -0.057,-0.425 -0.17,-0.368 -0.255,-0.34 -0.312,-0.227 -0.255,-0.113 -0.227,-0.028 -0.113,0.028 0,0"
             style="fill:#0e0e0f;fill-opacity:1;fill-rule:evenodd;stroke:none"
             id="path1906"
             inkscape:connector-curvature="0" /></g><g
            id="g1908"
            transform="translate(256.42844,252.3017)"><path
             d="M 0,0 C 0.085,-0.057 0.142,-0.17 0.113,-0.283 0.057,-0.368 -0.057,-0.425 -0.17,-0.368 -0.255,-0.34 -0.312,-0.227 -0.255,-0.113 -0.227,-0.028 -0.113,0.028 0,0 Z"
             style="fill:none;stroke:#0e0e0f;stroke-width:0.198;stroke-linecap:butt;stroke-linejoin:miter;stroke-miterlimit:10;stroke-dasharray:none;stroke-opacity:1"
             id="path1910"
             inkscape:connector-curvature="0" /></g><g
            id="g1916"
            transform="translate(249.31374,224.0683)"><path
             d="m 0,0 c -2.665,1.077 -5.726,-0.198 -6.832,-2.834 l -2.353,-5.698 c -1.105,-2.664 0.171,-5.754 2.835,-6.831 2.665,-1.106 5.726,0.17 6.832,2.835 l 2.352,5.697 C 3.94,-4.195 2.665,-1.105 0,0 Z"
             style="fill:none;stroke:#0e0e0f;stroke-width:0.198;stroke-linecap:butt;stroke-linejoin:miter;stroke-miterlimit:10;stroke-dasharray:none;stroke-opacity:1"
             id="path1918"
             inkscape:connector-curvature="0" /></g><g
            id="g1924"
            transform="translate(248.40644,221.9706)"><path
             d="m 0,0 c -1.984,0.822 -4.309,-0.142 -5.131,-2.126 l -1.757,-4.28 c -0.822,-1.984 0.141,-4.309 2.126,-5.13 1.984,-0.822 4.28,0.141 5.131,2.126 l 1.757,4.28 C 2.948,-3.146 1.984,-0.85 0,0 Z"
             style="fill:none;stroke:#0e0e0f;stroke-width:0.198;stroke-linecap:butt;stroke-linejoin:miter;stroke-miterlimit:10;stroke-dasharray:none;stroke-opacity:1"
             id="path1926"
             inkscape:connector-curvature="0" /></g><g
            id="g1928"
            transform="translate(252.26144,216.8124)"><path
             d="m 0,0 -1.729,0.708 -2.58,-6.18 1.758,-0.736 z"
             style="fill:#f9c400;fill-opacity:1;fill-rule:evenodd;stroke:none"
             id="path1930"
             inkscape:connector-curvature="0" /></g><g
            id="g1932"
            transform="translate(252.26144,216.8124)"><path
             d="m 0,0 -1.729,0.708 -2.58,-6.18 1.758,-0.736 z"
             style="fill:none;stroke:#0e0e0f;stroke-width:0.198;stroke-linecap:butt;stroke-linejoin:miter;stroke-miterlimit:10;stroke-dasharray:none;stroke-opacity:1"
             id="path1934"
             inkscape:connector-curvature="0" /></g><g
            id="g1936"
            transform="translate(249.17164,211.6249)"><path
             d="m 0,0 c -0.113,0.057 -0.227,0 -0.255,-0.113 -0.057,-0.085 0,-0.199 0.113,-0.256 0.085,-0.028 0.199,0 0.256,0.113 C 0.142,-0.142 0.114,-0.028 0,0"
             style="fill:#0e0e0f;fill-opacity:1;fill-rule:evenodd;stroke:none"
             id="path1938"
             inkscape:connector-curvature="0" /></g><g
            id="g1940"
            transform="translate(249.17164,211.6249)"><path
             d="m 0,0 c -0.113,0.057 -0.227,0 -0.255,-0.113 -0.057,-0.085 0,-0.199 0.113,-0.256 0.085,-0.028 0.199,0 0.256,0.113 C 0.142,-0.142 0.114,-0.028 0,0 Z"
             style="fill:none;stroke:#0e0e0f;stroke-width:0.198;stroke-linecap:butt;stroke-linejoin:miter;stroke-miterlimit:10;stroke-dasharray:none;stroke-opacity:1"
             id="path1942"
             inkscape:connector-curvature="0" /></g><g
            id="g1944"
            transform="translate(251.12764,216.6981)"><path
             d="m 0,0 c -0.113,0.029 -0.227,0 -0.255,-0.113 -0.057,-0.085 0,-0.227 0.085,-0.255 0.113,-0.057 0.227,0 0.283,0.113 C 0.142,-0.17 0.113,-0.028 0,0"
             style="fill:#0e0e0f;fill-opacity:1;fill-rule:evenodd;stroke:none"
             id="path1946"
             inkscape:connector-curvature="0" /></g><g
            id="g1948"
            transform="translate(251.12764,216.6981)"><path
             d="m 0,0 c -0.113,0.029 -0.227,0 -0.255,-0.113 -0.057,-0.085 0,-0.227 0.085,-0.255 0.113,-0.057 0.227,0 0.283,0.113 C 0.142,-0.17 0.113,-0.028 0,0 Z"
             style="fill:none;stroke:#0e0e0f;stroke-width:0.198;stroke-linecap:butt;stroke-linejoin:miter;stroke-miterlimit:10;stroke-dasharray:none;stroke-opacity:1"
             id="path1950"
             inkscape:connector-curvature="0" /></g><g
            id="g1952"
            transform="translate(256.85374,244.2225)"><path
             d="m 0,0 1.361,-0.566 c 0.368,-0.17 0.538,-0.596 0.396,-0.964 l -9.07,-21.941 c -0.142,-0.368 -0.596,-0.538 -0.964,-0.396 l -1.361,0.566 c -0.368,0.171 -0.567,0.596 -0.397,0.964 l 9.071,21.941 C -0.822,-0.028 -0.369,0.143 0,0"
             style="fill:#e23527;fill-opacity:1;fill-rule:evenodd;stroke:none"
             id="path1954"
             inkscape:connector-curvature="0" /></g><g
            id="g1956"
            transform="translate(256.85374,244.2225)"><path
             d="m 0,0 1.361,-0.566 c 0.368,-0.17 0.538,-0.596 0.396,-0.964 l -9.07,-21.941 c -0.142,-0.368 -0.596,-0.538 -0.964,-0.396 l -1.361,0.566 c -0.368,0.171 -0.567,0.596 -0.397,0.964 l 9.071,21.941 C -0.822,-0.028 -0.369,0.143 0,0 Z"
             style="fill:none;stroke:#0e0e0f;stroke-width:0.198;stroke-linecap:butt;stroke-linejoin:miter;stroke-miterlimit:10;stroke-dasharray:none;stroke-opacity:1"
             id="path1958"
             inkscape:connector-curvature="0" /></g><g
            id="g1960"
            transform="translate(250.36254,229.0575)"><path
             d="M 0,0 1.474,-0.623"
             style="fill:none;stroke:#0e0e0f;stroke-width:0.198;stroke-linecap:butt;stroke-linejoin:miter;stroke-miterlimit:10;stroke-dasharray:none;stroke-opacity:1"
             id="path1962"
             inkscape:connector-curvature="0" /></g><g
            id="g1964"
            transform="translate(250.92944,230.3895)"><path
             d="M 0,0 1.474,-0.595"
             style="fill:none;stroke:#0e0e0f;stroke-width:0.198;stroke-linecap:butt;stroke-linejoin:miter;stroke-miterlimit:10;stroke-dasharray:none;stroke-opacity:1"
             id="path1966"
             inkscape:connector-curvature="0" /></g><g
            id="g1968"
            transform="translate(251.46804,231.7509)"><path
             d="M 0,0 1.502,-0.624"
             style="fill:none;stroke:#0e0e0f;stroke-width:0.198;stroke-linecap:butt;stroke-linejoin:miter;stroke-miterlimit:10;stroke-dasharray:none;stroke-opacity:1"
             id="path1970"
             inkscape:connector-curvature="0" /></g><g
            id="g1972"
            transform="translate(252.03484,233.0829)"><path
             d="M 0,0 1.474,-0.624"
             style="fill:none;stroke:#0e0e0f;stroke-width:0.198;stroke-linecap:butt;stroke-linejoin:miter;stroke-miterlimit:10;stroke-dasharray:none;stroke-opacity:1"
             id="path1974"
             inkscape:connector-curvature="0" /></g><g
            id="g1976"
            transform="translate(252.57344,234.4433)"><path
             d="M 0,0 1.502,-0.623"
             style="fill:none;stroke:#0e0e0f;stroke-width:0.198;stroke-linecap:butt;stroke-linejoin:miter;stroke-miterlimit:10;stroke-dasharray:none;stroke-opacity:1"
             id="path1978"
             inkscape:connector-curvature="0" /></g><g
            id="g1980"
            transform="translate(252.82834,236.4276)"><path
             d="M 0,0 2.721,-1.105"
             style="fill:none;stroke:#0e0e0f;stroke-width:0.198;stroke-linecap:butt;stroke-linejoin:miter;stroke-miterlimit:10;stroke-dasharray:none;stroke-opacity:1"
             id="path1982"
             inkscape:connector-curvature="0" /></g></g></g></g></svg>