<svg xmlns="http://www.w3.org/2000/svg" viewBox="0 0 9.0422 15.9732">
    <title>Friend</title>
    <g id="Capa_2" data-name="Capa 2">
        <g id="Capa_1-2" data-name="Capa 1">
            <polygon points="6.744 1.942 4.732 6.704 2.747 11.466 1.784 10.956 0.848 10.417 3.796 6.194 6.744 1.942"
                     fill="#afafb0" fill-rule="evenodd"/>
            <path d="M5.8656,3.6709l-3.1465-.51a3.0957,3.0957,0,0,1,.34-1.02A3.1647,3.1647,0,0,1,7.368.95a3.159,3.159,0,0,1,1.3039,4.252,3.3311,3.3311,0,0,1-.68.85Z"
                  fill="#7a8ec2" fill-rule="evenodd"/>
            <polygon points="6.659 1.715 4.647 6.477 2.634 11.268 1.699 10.729 0.763 10.219 3.711 5.967 6.659 1.715"
                     fill="#818181" fill-rule="evenodd"/>
            <path d="M5.8089,3.4441l-3.1464-.51a3.0938,3.0938,0,0,1,.34-1.02A3.1387,3.1387,0,0,1,7.2829.7228a3.1343,3.1343,0,0,1,1.304,4.252,3.2115,3.2115,0,0,1-.68.85Z"
                  fill="#3b2f85" fill-rule="evenodd"/>
            <path d="M2.5491,9.1984a.5317.5317,0,0,1,.1417.7654.5553.5553,0,0,1-.737.3118.5909.5909,0,0,1-.1417-.7937.5731.5731,0,0,1,.737-.2835Z"
                  fill="#b6c6d2" fill-rule="evenodd"/>
            <polygon
                    points="6.347 2.225 6.518 2.452 6.688 2.679 6.574 2.877 6.461 3.104 6.177 3.076 5.894 3.047 5.724 2.82 5.554 2.594 5.667 2.395 5.781 2.169 6.064 2.197 6.347 2.225"
                    fill="#fff" stroke="#151515" stroke-miterlimit="10" stroke-width="0.7654" fill-rule="evenodd"/>
            <polygon points="5.185 0.383 5.157 0.383 5.327 3.387 5.327 3.387 5.185 0.383" fill="#fff" stroke="#fff"
                     stroke-miterlimit="10" stroke-width="0.7654" fill-rule="evenodd"/>
            <path d="M4.6751,10.3323a.1717.1717,0,0,1,.0283.2268l-.7087.9637a.1715.1715,0,0,1-.2267.0284.2141.2141,0,0,1-.0284-.2268l.7087-.9638a.1716.1716,0,0,1,.2268-.0283Z"
                  fill="#3b2f85" stroke="#3b2f85" stroke-miterlimit="10" stroke-width="0.7654" fill-rule="evenodd"/>
            <path d="M4.93,10.5307a.1477.1477,0,0,1,.0283.2268l-.7086.9638a.1369.1369,0,0,1-.1985.0283.1477.1477,0,0,1-.0283-.2268l.68-.9637a.1756.1756,0,0,1,.2268-.0284Z"
                  fill="#3b2f85" stroke="#3b2f85" stroke-miterlimit="10" stroke-width="0.7654" fill-rule="evenodd"/>
            <path d="M5.1569,10.7575a.1477.1477,0,0,1,.0284.2268l-.7087.9637a.1368.1368,0,0,1-.1984.0284A.1478.1478,0,0,1,4.25,11.75l.7086-.9638a.1368.1368,0,0,1,.1984-.0283Z"
                  fill="#3b2f85" stroke="#3b2f85" stroke-miterlimit="10" stroke-width="0.7654" fill-rule="evenodd"/>
            <path d="M5.3554,11.0126a.1368.1368,0,0,1,.0283.1984l-.7086.9638a.1418.1418,0,0,1-.2268-.17l.68-.9638a.15.15,0,0,1,.2268-.0283Z"
                  fill="#3b2f85" stroke="#3b2f85" stroke-miterlimit="10" stroke-width="0.7654" fill-rule="evenodd"/>
            <polyline points="4.448 10.701 4.335 10.587 4.278 10.559 4.278 10.531 4.25 10.502 4.193 10.332" fill="none"
                      stroke="#3b2f85" stroke-miterlimit="10" stroke-width="0.7654"/>
            <path d="M4.1932,10.3323a.312.312,0,0,0-.0851-.17" fill="none" stroke="#3b2f85" stroke-miterlimit="10"
                  stroke-width="0.7654"/>
            <polyline points="4.108 10.162 4.08 10.106 4.023 9.964 4.051 9.907 4.051 9.879 4.023 9.822 4.023 9.794"
                      fill="none" stroke="#3b2f85" stroke-miterlimit="10" stroke-width="0.7654"/>
            <path d="M4.0231,9.7937c.0283-.0567,0-.1417,0-.1984" fill="none" stroke="#3b2f85" stroke-miterlimit="10"
                  stroke-width="0.7654"/>
            <polyline
                    points="4.732 11.863 4.845 11.891 4.845 11.92 4.873 11.92 4.845 11.948 4.873 11.976 4.902 11.976 4.902 12.005 4.93 12.005 4.93 12.033 4.959 12.061 4.959 12.09 4.959 12.118 4.987 12.26"
                    fill="none" stroke="#3b2f85" stroke-miterlimit="10" stroke-width="0.7654"/>
            <path d="M4.9869,12.26v.0851c0,.0567.0283.1984.0283.2551" fill="none" stroke="#3b2f85"
                  stroke-miterlimit="10" stroke-width="0.7654"/>
            <polyline points="5.015 12.6 4.987 12.657 4.987 12.685 4.987 12.713 4.987 12.742" fill="none"
                      stroke="#3b2f85" stroke-miterlimit="10" stroke-width="0.7654"/>
            <path d="M4.9869,12.7417c-.0284.0567-.0284.1418-.0567.1985" fill="none" stroke="#3b2f85"
                  stroke-miterlimit="10" stroke-width="0.7654"/>
            <path d="M6.2341,2.452a.2293.2293,0,0,1,.1417.3118.2314.2314,0,0,1-.34.0567.2294.2294,0,0,1-.1418-.3118.2314.2314,0,0,1,.34-.0567Z"
                  fill="#151515" stroke="#151515" stroke-miterlimit="10" stroke-width="0.7654" fill-rule="evenodd"/>
            <path d="M2.7191,9.8787C1.4719,9.68.6782,11.8913.4514,12.94c-.7086,2.75,4.28,3.5149,4.904,1.559.3968-1.19.9637-1.7858-.0567-2.8346a3.7673,3.7673,0,0,0-1.5307-.7937c-.17-.0567-.0567-.0284-.1418-.1134"
                  fill="none" stroke="#3b2f85" stroke-miterlimit="10" stroke-width="0.7654"/>
            <line x1="3.6262" y1="10.7575" x2="3.5979" y2="10.7575" fill="none" stroke="#3b2f85" stroke-miterlimit="10"
                  stroke-width="0.7654"/>
            <path d="M3.5979,10.7575c-.0851-.0851-.1134-.2835-.1984-.3685" fill="none" stroke="#3b2f85"
                  stroke-miterlimit="10" stroke-width="0.7654"/>
            <line x1="3.3995" y1="10.389" x2="3.3711" y2="10.2756" fill="none" stroke="#3b2f85" stroke-miterlimit="10"
                  stroke-width="0.7654"/>
            <path d="M3.3711,10.2756c-.0283-.0284-.2268-.1984-.2268-.1984" fill="none" stroke="#3b2f85"
                  stroke-miterlimit="10" stroke-width="0.7654"/>
        </g>
    </g>
</svg>