<svg xmlns="http://www.w3.org/2000/svg" viewBox="0 0 34.2317 34.2317">
    <title>Recurso 1</title>
    <g id="Capa_2" data-name="Capa 2">
        <g id="Capa_1-2" data-name="Capa 1">
            <circle cx="17.1159" cy="17.1159" r="17.0079" fill="#010001" stroke="#1b1b1b" stroke-miterlimit="22.9256"
                    stroke-width="0.216"/>
            <path d="M10.5847,9.1822a5.2461,5.2461,0,0,1,7.2285,1.5615l3.3413,5.1831a5.2294,5.2294,0,0,1-8.79,5.667L9.0236,16.41a5.2428,5.2428,0,0,1,1.5611-7.2275Zm1.2671,1.9008a3.9348,3.9348,0,0,0-1.17,5.42l2.5048,3.8852a3.92,3.92,0,0,0,6.59-4.249L17.2712,12.253A3.9333,3.9333,0,0,0,11.8518,11.083Z"
                  fill="#fff" stroke="#1b1b1b" stroke-miterlimit="22.9256" stroke-width="0.216" fill-rule="evenodd"/>
            <rect x="10.6514" y="15.7967" width="1.8769" height="6.7015"
                  transform="translate(-8.5296 9.3416) rotate(-32.8299)" fill="#fff"/>
            <path d="M12.9494,21.38a.2014.2014,0,0,1,.2178.3389.1994.1994,0,0,1-.2764-.06A.202.202,0,0,1,12.9494,21.38Z"
                  fill="#fff" stroke="#1b1b1b" stroke-miterlimit="22.9256" stroke-width="0.216" fill-rule="evenodd"/>
            <path d="M10.1223,16.7461a.2007.2007,0,1,1,.2173.3374.2007.2007,0,1,1-.2173-.3374Z" fill="#fff"
                  stroke="#1b1b1b" stroke-miterlimit="22.9256" stroke-width="0.216" fill-rule="evenodd"/>
            <path d="M23.51,32.384a4.9112,4.9112,0,0,1,2.5876-1.3655l-6.8352-10.602a.7431.7431,0,0,0-1.021-.22l-1.2369.7994a.7383.7383,0,0,0-.2216,1.0186L23.4861,32.412Z"
                  fill="#be2e21" stroke="#1b1b1b" stroke-miterlimit="22.9256" stroke-width="0.216" fill-rule="evenodd"/>
            <line x1="23.4045" y1="31.295" x2="24.7566" y2="30.4244" fill="none" stroke="#1b1b1b"
                  stroke-miterlimit="22.9256" stroke-width="0.216"/>
            <line x1="22.6169" y1="30.0728" x2="23.9675" y2="29.1997" fill="none" stroke="#1b1b1b"
                  stroke-miterlimit="22.9256" stroke-width="0.216"/>
            <line x1="21.1096" y1="28.7173" x2="23.5866" y2="27.1221" fill="none" stroke="#1b1b1b"
                  stroke-miterlimit="22.9256" stroke-width="0.216"/>
            <path d="M12.7522,12.2207c2.122,0,3.8471-2.4887,3.8471-5.5449S14.8742,1.13,12.7522,1.13c-2.1187,0-3.85,2.4907-3.85,5.5459s1.731,5.5449,3.85,5.5449Zm.1494-1.1621c-1.0025,0-1.8159-1.185-1.8159-2.6381s.8134-2.6387,1.8159-2.6387c1,0,1.8139,1.185,1.8139,2.6387S13.9016,11.0586,12.9016,11.0586Z"
                  fill="#fff" stroke="#1b1b1b" stroke-miterlimit="22.9256" stroke-width="0.216" fill-rule="evenodd"/>
            <polygon
                    points="12.728 1.906 13.4 2.342 14.074 2.777 14.074 3.649 14.074 4.522 13.4 4.957 12.728 5.394 12.056 4.957 11.383 4.522 11.383 3.649 11.383 2.777 12.056 2.342 12.728 1.906"
                    fill="#fff" stroke="#1b1b1b" stroke-miterlimit="22.9256" stroke-width="0.216" fill-rule="evenodd"/>
            <path d="M12.7522,12.2207c2.122,0,3.8471-2.4887,3.8471-5.5449S14.8742,1.13,12.7522,1.13c-2.1187,0-3.85,2.4907-3.85,5.5459s1.731,5.5449,3.85,5.5449Zm.1494-1.1621c-1.0025,0-1.8159-1.185-1.8159-2.6381s.8134-2.6387,1.8159-2.6387c1,0,1.8139,1.185,1.8139,2.6387S13.9016,11.0586,12.9016,11.0586Z"
                  fill="#fff" stroke="#1b1b1b" stroke-miterlimit="22.9256" stroke-width="0.216" fill-rule="evenodd"/>
            <polygon
                    points="12.728 1.906 13.4 2.342 14.074 2.777 14.074 3.649 14.074 4.522 13.4 4.957 12.728 5.394 12.056 4.957 11.383 4.522 11.383 3.649 11.383 2.777 12.056 2.342 12.728 1.906"
                    fill="#fff" stroke="#1b1b1b" stroke-miterlimit="22.9256" stroke-width="0.216" fill-rule="evenodd"/>
            <path d="M10.5847,9.1822a5.2461,5.2461,0,0,1,7.2285,1.5615l3.3413,5.1831a5.2294,5.2294,0,0,1-8.79,5.667L9.0236,16.41a5.2428,5.2428,0,0,1,1.5611-7.2275Zm1.2671,1.9008a3.9348,3.9348,0,0,0-1.17,5.42l2.5048,3.8852a3.92,3.92,0,0,0,6.59-4.249L17.2712,12.253A3.9333,3.9333,0,0,0,11.8518,11.083Z"
                  fill="#fff" stroke="#1b1b1b" stroke-miterlimit="22.9256" stroke-width="0.216" fill-rule="evenodd"/>
            <rect x="10.6514" y="15.7967" width="1.8769" height="6.7015"
                  transform="translate(-8.5296 9.3416) rotate(-32.8299)" fill="#fff"/>
            <path d="M12.9494,21.38a.2014.2014,0,0,1,.2178.3389.1994.1994,0,0,1-.2764-.06A.202.202,0,0,1,12.9494,21.38Z"
                  fill="#fff" stroke="#1b1b1b" stroke-miterlimit="22.9256" stroke-width="0.216" fill-rule="evenodd"/>
            <path d="M10.1223,16.7461a.2007.2007,0,1,1,.2173.3374.2007.2007,0,1,1-.2173-.3374Z" fill="#fff"
                  stroke="#1b1b1b" stroke-miterlimit="22.9256" stroke-width="0.216" fill-rule="evenodd"/>
            <path d="M23.51,32.384a4.9112,4.9112,0,0,1,2.5876-1.3655l-6.8352-10.602a.7431.7431,0,0,0-1.021-.22l-1.2369.7994a.7383.7383,0,0,0-.2216,1.0186L23.4861,32.412Z"
                  fill="#be2e21" stroke="#1b1b1b" stroke-miterlimit="22.9256" stroke-width="0.216" fill-rule="evenodd"/>
            <line x1="23.4045" y1="31.295" x2="24.7566" y2="30.4244" fill="none" stroke="#1b1b1b"
                  stroke-miterlimit="22.9256" stroke-width="0.216"/>
            <line x1="22.6169" y1="30.0728" x2="23.9675" y2="29.1997" fill="none" stroke="#1b1b1b"
                  stroke-miterlimit="22.9256" stroke-width="0.216"/>
            <line x1="21.1096" y1="28.7173" x2="23.5866" y2="27.1221" fill="none" stroke="#1b1b1b"
                  stroke-miterlimit="22.9256" stroke-width="0.216"/>
            <path d="M10.5847,9.1822a5.2461,5.2461,0,0,1,7.2285,1.5615l3.3413,5.1831a5.2294,5.2294,0,0,1-8.79,5.667L9.0236,16.41a5.2428,5.2428,0,0,1,1.5611-7.2275Zm1.2671,1.9008a3.9348,3.9348,0,0,0-1.17,5.42l2.5048,3.8852a3.92,3.92,0,0,0,6.59-4.249L17.2712,12.253A3.9333,3.9333,0,0,0,11.8518,11.083Z"
                  fill="#fff" stroke="#fff" stroke-miterlimit="22.9256" stroke-width="0.216" fill-rule="evenodd"/>
            <rect x="10.6514" y="15.7967" width="1.8769" height="6.7015"
                  transform="translate(-8.5296 9.3416) rotate(-32.8299)" fill="#fff"/>
            <path d="M12.9494,21.38a.2014.2014,0,0,1,.2178.3389.1994.1994,0,0,1-.2764-.06A.202.202,0,0,1,12.9494,21.38Z"
                  fill="#fff" stroke="#1b1b1b" stroke-miterlimit="22.9256" stroke-width="0.216" fill-rule="evenodd"/>
            <path d="M10.1223,16.7461a.2007.2007,0,1,1,.2173.3374.2007.2007,0,1,1-.2173-.3374Z" fill="#fff"
                  stroke="#1b1b1b" stroke-miterlimit="22.9256" stroke-width="0.216" fill-rule="evenodd"/>
            <path d="M23.51,32.384a4.9112,4.9112,0,0,1,2.5876-1.3655l-6.8352-10.602a.7431.7431,0,0,0-1.021-.22l-1.2369.7994a.7383.7383,0,0,0-.2216,1.0186L23.4861,32.412Z"
                  fill="#fff" stroke="#fff" stroke-miterlimit="22.9256" stroke-width="0.216" fill-rule="evenodd"/>
            <line x1="23.4045" y1="31.295" x2="24.7566" y2="30.4244" fill="none" stroke="#1b1b1b"
                  stroke-miterlimit="22.9256" stroke-width="0.216"/>
            <line x1="22.6169" y1="30.0728" x2="23.9675" y2="29.1997" fill="none" stroke="#1b1b1b"
                  stroke-miterlimit="22.9256" stroke-width="0.216"/>
            <line x1="21.1096" y1="28.7173" x2="23.5866" y2="27.1221" fill="none" stroke="#1b1b1b"
                  stroke-miterlimit="22.9256" stroke-width="0.216"/>
            <path d="M12.7522,12.2207c2.122,0,3.8471-2.4887,3.8471-5.5449S14.8742,1.13,12.7522,1.13c-2.1187,0-3.85,2.4907-3.85,5.5459s1.731,5.5449,3.85,5.5449Zm.1494-1.1621c-1.0025,0-1.8159-1.185-1.8159-2.6381s.8134-2.6387,1.8159-2.6387c1,0,1.8139,1.185,1.8139,2.6387S13.9016,11.0586,12.9016,11.0586Z"
                  fill="#fff" stroke="#fff" stroke-miterlimit="22.9256" stroke-width="0.216" fill-rule="evenodd"/>
            <polygon
                    points="12.728 1.906 13.4 2.342 14.074 2.777 14.074 3.649 14.074 4.522 13.4 4.957 12.728 5.394 12.056 4.957 11.383 4.522 11.383 3.649 11.383 2.777 12.056 2.342 12.728 1.906"
                    fill="#010001" stroke="#1b1b1b" stroke-miterlimit="22.9256" stroke-width="0.216"
                    fill-rule="evenodd"/>
            <rect id="_Sector_" data-name="&lt;Sector&gt;" x="7.2087" y="1.7559" width="22" height="23" fill="none"/>
        </g>
    </g>
</svg>