<svg xmlns="http://www.w3.org/2000/svg" viewBox="0 0 32.0029 32.5063">
    <title>Recurso 4</title>
    <g id="Capa_2" data-name="Capa 2">
        <g id="Capa_1-2" data-name="Capa 1">
            <path d="M18.2608,11.9977c2.122,0,3.8471-2.4887,3.8471-5.5449S20.3828.9069,18.2608.9069c-2.1187,0-3.85,2.4907-3.85,5.5459s1.731,5.5449,3.85,5.5449Zm.1494-1.1621c-1.0025,0-1.8159-1.185-1.8159-2.6381s.8134-2.6387,1.8159-2.6387c1,0,1.8139,1.185,1.8139,2.6387S19.41,10.8356,18.41,10.8356Z"
                  fill="#fff" stroke="#fff" stroke-miterlimit="22.9256" stroke-width="0.216" fill-rule="evenodd"/>
            <polygon
                    points="18.236 1.683 18.908 2.119 19.583 2.554 19.583 3.426 19.583 4.299 18.908 4.734 18.236 5.171 17.564 4.734 16.892 4.299 16.892 3.426 16.892 2.554 17.564 2.119 18.236 1.683"
                    stroke="#000" stroke-miterlimit="22.9256" stroke-width="0.216" fill-rule="evenodd"/>
            <rect x="16.0528" y="14.8458" width="1.8769" height="6.7015"
                  transform="translate(-7.1514 12.118) rotate(-32.8299)" fill="#fff"/>
            <path d="M18.3507,20.429a.2014.2014,0,0,1,.2178.3389.1994.1994,0,0,1-.2764-.06A.202.202,0,0,1,18.3507,20.429Z"
                  fill="#fff" stroke="#000" stroke-miterlimit="22.9256" stroke-width="0.216" fill-rule="evenodd"/>
            <path d="M15.5236,15.7952a.2007.2007,0,1,1,.2173.3374.2007.2007,0,1,1-.2173-.3374Z" fill="#fff"
                  stroke="#000" stroke-miterlimit="22.9256" stroke-width="0.216" fill-rule="evenodd"/>
            <line x1="29.4055" y1="31.6255" x2="30.7576" y2="30.7549" fill="none" stroke="#000"
                  stroke-miterlimit="22.9256" stroke-width="0.216"/>
            <line x1="28.6179" y1="30.4033" x2="29.9685" y2="29.5302" fill="none" stroke="#000"
                  stroke-miterlimit="22.9256" stroke-width="0.216"/>
            <line x1="27.1106" y1="29.0478" x2="29.5876" y2="27.4527" fill="none" stroke="#000"
                  stroke-miterlimit="22.9256" stroke-width="0.216"/>
            <rect x="16.0528" y="14.8458" width="1.8769" height="6.7015"
                  transform="translate(-7.1514 12.118) rotate(-32.8299)" fill="#fff"/>
            <path d="M18.3507,20.429a.2014.2014,0,0,1,.2178.3389.1994.1994,0,0,1-.2764-.06A.202.202,0,0,1,18.3507,20.429Z"
                  fill="#fff" stroke="#000" stroke-miterlimit="22.9256" stroke-width="0.216" fill-rule="evenodd"/>
            <path d="M15.5236,15.7952a.2007.2007,0,1,1,.2173.3374.2007.2007,0,1,1-.2173-.3374Z" fill="#fff"
                  stroke="#000" stroke-miterlimit="22.9256" stroke-width="0.216" fill-rule="evenodd"/>
            <line x1="29.4055" y1="31.6255" x2="30.7576" y2="30.7549" fill="none" stroke="#000"
                  stroke-miterlimit="22.9256" stroke-width="0.216"/>
            <line x1="28.6179" y1="30.4033" x2="29.9685" y2="29.5302" fill="none" stroke="#000"
                  stroke-miterlimit="22.9256" stroke-width="0.216"/>
            <line x1="27.1106" y1="29.0478" x2="29.5876" y2="27.4527" fill="none" stroke="#000"
                  stroke-miterlimit="22.9256" stroke-width="0.216"/>
            <path d="M16.1735,8.7764a5.2461,5.2461,0,0,1,7.2285,1.5615l3.3413,5.1831a5.2294,5.2294,0,0,1-8.7905,5.667l-3.34-5.1841a5.2428,5.2428,0,0,1,1.5611-7.2275Zm1.2671,1.9008a3.9348,3.9348,0,0,0-1.17,5.4195l2.5048,3.8852a3.92,3.92,0,0,0,6.59-4.249L22.86,11.8472A3.9333,3.9333,0,0,0,17.4406,10.6772Z"
                  fill="#fff" stroke="#fff" stroke-miterlimit="22.9256" stroke-width="0.216" fill-rule="evenodd"/>
            <rect x="16.0528" y="14.8458" width="1.8769" height="6.7015"
                  transform="translate(-7.1514 12.118) rotate(-32.8299)" fill="#fff"/>
            <path d="M18.3507,20.429a.2014.2014,0,0,1,.2178.3389.1994.1994,0,0,1-.2764-.06A.202.202,0,0,1,18.3507,20.429Z"
                  fill="#fff" stroke="#000" stroke-miterlimit="22.9256" stroke-width="0.216" fill-rule="evenodd"/>
            <path d="M15.5236,15.7952a.2007.2007,0,1,1,.2173.3374.2007.2007,0,1,1-.2173-.3374Z" fill="#fff"
                  stroke="#000" stroke-miterlimit="22.9256" stroke-width="0.216" fill-rule="evenodd"/>
            <path d="M29.2388,32.3019a4.9112,4.9112,0,0,1,2.5876-1.3655l-6.8352-10.602a.743.743,0,0,0-1.021-.22l-1.2368.7994a.7382.7382,0,0,0-.2217,1.0186L29.2149,32.33Z"
                  fill="#fff" stroke="#fff" stroke-miterlimit="22.9256" stroke-width="0.216" fill-rule="evenodd"/>
            <line x1="29.4055" y1="31.6255" x2="30.7576" y2="30.7549" fill="none" stroke="#000"
                  stroke-miterlimit="22.9256" stroke-width="0.216"/>
            <line x1="28.6179" y1="30.4033" x2="29.9685" y2="29.5302" fill="none" stroke="#000"
                  stroke-miterlimit="22.9256" stroke-width="0.216"/>
            <line x1="27.1106" y1="29.0478" x2="29.5876" y2="27.4527" fill="none" stroke="#000"
                  stroke-miterlimit="22.9256" stroke-width="0.216"/>
            <rect id="_Sector_" data-name="&lt;Sector&gt;" width="22" height="23" fill="none"/>
        </g>
    </g>
</svg>