<svg xmlns="http://www.w3.org/2000/svg" viewBox="0 0 7.9584 14.0217">
    <title>Parabolt</title>
    <g id="Capa_2" data-name="Capa 2">
        <g id="Capa_1-2" data-name="Capa 1">
            <polygon points="5.738 2.901 6.758 0.888 7.212 0.491 7.58 0.973 7.609 1.313 6.532 3.383 5.738 2.901"
                     fill="#fff" stroke="#fff" stroke-miterlimit="10" stroke-width="0.2268" fill-rule="evenodd"/>
            <polygon points="3.045 9.194 2.705 10.639 2.336 12.085 1.741 11.802 1.117 11.49 2.081 10.328 3.045 9.194"
                     fill="#fff" stroke="#fff" stroke-miterlimit="10" stroke-width="0.2268" fill-rule="evenodd"/>
            <polygon points="0.182 13.247 1.089 11.49 2.336 12.142 1.458 13.871 0.182 13.247" fill="#fff" stroke="#fff"
                     stroke-miterlimit="10" stroke-width="0.2268" fill-rule="evenodd"/>
            <line x1="5.5678" y1="2.8157" x2="6.8718" y2="3.2126" fill="none" stroke="#fff" stroke-miterlimit="10"
                  stroke-width="0.2268"/>
            <line x1="5.6812" y1="2.5606" x2="7.0135" y2="2.9575" fill="none" stroke="#fff" stroke-miterlimit="10"
                  stroke-width="0.2268"/>
            <line x1="5.8229" y1="2.3338" x2="7.1269" y2="2.7023" fill="none" stroke="#fff" stroke-miterlimit="10"
                  stroke-width="0.2268"/>
            <line x1="5.9363" y1="2.0787" x2="7.2686" y2="2.4472" fill="none" stroke="#fff" stroke-miterlimit="10"
                  stroke-width="0.2268"/>
            <line x1="6.0781" y1="1.8236" x2="7.382" y2="2.1921" fill="none" stroke="#fff" stroke-miterlimit="10"
                  stroke-width="0.2268"/>
            <line x1="6.1914" y1="1.5685" x2="7.5237" y2="1.937" fill="none" stroke="#fff" stroke-miterlimit="10"
                  stroke-width="0.2268"/>
            <line x1="6.3332" y1="1.3134" x2="7.6655" y2="1.7102" fill="none" stroke="#fff" stroke-miterlimit="10"
                  stroke-width="0.2268"/>
            <line x1="6.4749" y1="1.0582" x2="7.7788" y2="1.4551" fill="none" stroke="#fff" stroke-miterlimit="10"
                  stroke-width="0.2268"/>
            <line x1="6.5883" y1="0.8031" x2="7.2403" y2="1.0016" fill="none" stroke="#fff" stroke-miterlimit="10"
                  stroke-width="0.2268"/>
            <polygon points="6.985 0.718 7.212 0.321 7.807 0.633 7.609 1.03 6.985 0.718" fill="#fff" stroke="#fff"
                     stroke-miterlimit="10" stroke-width="0.2268" fill-rule="evenodd"/>
            <path d="M1.5426,11.0645c.3685-.7653.8788-1.2755,1.1339-1.1338.2268.1134.1134.822-.2551,1.5874-.3969.737-.9071,1.2472-1.1339,1.1338-.2551-.1417-.1417-.85.2551-1.5874Z"
                  fill="#fff" stroke="#fff" stroke-miterlimit="10" stroke-width="0.2268" fill-rule="evenodd"/>
            <polygon points="1.854 10.214 5.568 2.901 6.673 3.468 2.932 10.781 1.854 10.214" fill="#fff" stroke="#fff"
                     stroke-miterlimit="10" stroke-width="0.2268" fill-rule="evenodd"/>
            <polygon points="1.543 10.526 1.401 10.838 1.571 10.923 1.713 10.639 1.543 10.526" fill="#fff" stroke="#fff"
                     stroke-miterlimit="10" stroke-width="0.2268" fill-rule="evenodd"/>
            <rect x="2.5605" y="11.1537" width="0.3169" height="0.1902"
                  transform="translate(-8.5582 8.6501) rotate(-63.4349)" fill="#fff" stroke="#fff"
                  stroke-miterlimit="10" stroke-width="0.2268"/>
            <polygon points="4.519 3.581 5.058 2.532 5.823 2.929 5.284 3.978 4.519 3.581" fill="#fff" stroke="#fff"
                     stroke-miterlimit="10" stroke-width="0.2268" fill-rule="evenodd"/>
            <polygon points="5.993 4.346 6.56 3.298 7.297 3.666 6.758 4.743 5.993 4.346" fill="#fff" stroke="#fff"
                     stroke-miterlimit="10" stroke-width="0.2268" fill-rule="evenodd"/>
            <polygon points="5.114 3.893 5.653 2.844 6.73 3.383 6.191 4.431 5.114 3.893" fill="#fff" stroke="#fff"
                     stroke-miterlimit="10" stroke-width="0.2268" fill-rule="evenodd"/>
            <polygon points="4.179 4.12 4.321 3.836 6.673 5.055 6.503 5.339 4.179 4.12" fill="#fff" stroke="#fff"
                     stroke-miterlimit="10" stroke-width="0.2268" fill-rule="evenodd"/>
            <polygon points="5.71 2.759 6.73 0.718 7.184 0.35 7.552 0.831 7.58 1.143 6.503 3.241 5.71 2.759"
                     fill="#989999" stroke="#989999" stroke-miterlimit="10" stroke-width="0.2268" fill-rule="evenodd"/>
            <polygon points="3.017 9.024 2.648 10.498 2.308 11.943 1.684 11.631 1.089 11.32 2.053 10.186 3.017 9.024"
                     fill="#989999" stroke="#989999" stroke-miterlimit="10" stroke-width="0.2268" fill-rule="evenodd"/>
            <polygon points="0.154 13.077 1.061 11.348 2.308 11.972 1.429 13.729 0.154 13.077" fill="#989999"
                     stroke="#989999" stroke-miterlimit="10" stroke-width="0.2268" fill-rule="evenodd"/>
            <line x1="5.5395" y1="2.674" x2="6.8434" y2="3.0425" fill="none" stroke="#151515" stroke-miterlimit="10"
                  stroke-width="0.2268"/>
            <line x1="5.6529" y1="2.4189" x2="6.9851" y2="2.8157" fill="none" stroke="#151515" stroke-miterlimit="10"
                  stroke-width="0.2268"/>
            <line x1="5.7946" y1="2.1638" x2="7.0985" y2="2.5606" fill="none" stroke="#151515" stroke-miterlimit="10"
                  stroke-width="0.2268"/>
            <line x1="5.908" y1="1.9086" x2="7.2403" y2="2.3055" fill="none" stroke="#151515" stroke-miterlimit="10"
                  stroke-width="0.2268"/>
            <line x1="6.0497" y1="1.6535" x2="7.3536" y2="2.0504" fill="none" stroke="#151515" stroke-miterlimit="10"
                  stroke-width="0.2268"/>
            <line x1="6.1631" y1="1.3984" x2="7.4954" y2="1.7953" fill="none" stroke="#151515" stroke-miterlimit="10"
                  stroke-width="0.2268"/>
            <line x1="6.3048" y1="1.1433" x2="7.6088" y2="1.5401" fill="none" stroke="#151515" stroke-miterlimit="10"
                  stroke-width="0.2268"/>
            <line x1="6.4182" y1="0.8882" x2="7.7505" y2="1.285" fill="none" stroke="#151515" stroke-miterlimit="10"
                  stroke-width="0.2268"/>
            <line x1="6.5599" y1="0.6614" x2="7.2119" y2="0.8315" fill="none" stroke="#151515" stroke-miterlimit="10"
                  stroke-width="0.2268"/>
            <polygon points="6.957 0.548 7.184 0.151 7.779 0.463 7.58 0.86 6.957 0.548" fill="#151515" stroke="#151515"
                     stroke-miterlimit="10" stroke-width="0.2268" fill-rule="evenodd"/>
            <path d="M1.4859,10.8945c.3969-.737.9071-1.2473,1.1622-1.1339.2268.1417.1134.85-.2551,1.5874-.3968.7654-.9071,1.2756-1.1338,1.1339-.2552-.1134-.1418-.8221.2267-1.5874Z"
                  fill="#151515" stroke="#151515" stroke-miterlimit="10" stroke-width="0.2268" fill-rule="evenodd"/>
            <polygon points="1.798 10.072 5.539 2.759 6.645 3.298 2.903 10.611 1.798 10.072" fill="#989999"
                     stroke="#989999" stroke-miterlimit="10" stroke-width="0.2268" fill-rule="evenodd"/>
            <rect x="1.37" y="10.4734" width="0.3169" height="0.1902"
                  transform="translate(-8.6078 7.2092) rotate(-63.4349)" fill="#151515" stroke="#151515"
                  stroke-miterlimit="10" stroke-width="0.2268"/>
            <rect x="2.5322" y="11.012" width="0.3169" height="0.1902"
                  transform="translate(-8.4471 8.5464) rotate(-63.4349)" fill="#151515" stroke="#151515"
                  stroke-miterlimit="10" stroke-width="0.2268"/>
            <polygon points="4.491 3.439 5.029 2.362 5.795 2.759 5.256 3.836 4.491 3.439" fill="#151515"
                     stroke="#d8d9d9" stroke-miterlimit="10" stroke-width="0.2268" fill-rule="evenodd"/>
            <polygon points="5.965 4.205 6.503 3.128 7.269 3.524 6.73 4.573 5.965 4.205" fill="#151515" stroke="#d8d9d9"
                     stroke-miterlimit="10" stroke-width="0.2268" fill-rule="evenodd"/>
            <polygon points="5.086 3.751 5.625 2.674 6.673 3.213 6.135 4.29 5.086 3.751" fill="#151515" stroke="#ededec"
                     stroke-miterlimit="10" stroke-width="0.2268" fill-rule="evenodd"/>
            <polygon points="4.122 3.978 4.292 3.694 6.617 4.885 6.475 5.168 4.122 3.978" fill="#151515"
                     stroke="#ededec" stroke-miterlimit="10" stroke-width="0.2268" fill-rule="evenodd"/>
        </g>
    </g>
</svg>