<svg xmlns="http://www.w3.org/2000/svg" viewBox="0 0 10.1197 4.6205">
    <title>Recurso 13</title>
    <g id="Capa_2" data-name="Capa 2">
        <g id="Capa_1-2" data-name="Capa 1">
            <path d="M1.63,4.5213c.85,0,1.5307-.9922,1.5307-2.2111S2.48.0992,1.63.0992.0992,1.0913.0992,2.31.78,4.5213,1.63,4.5213Z"
                  fill="#151515" stroke="#151515" stroke-miterlimit="10" stroke-width="0.1984" fill-rule="evenodd"/>
            <path d="M1.6866,4.0677c.3969,0,.737-.4819.737-1.0488,0-.5953-.34-1.0772-.737-1.0772S.978,2.4236.978,3.0189c0,.5669.3118,1.0488.7086,1.0488Z"
                  fill="#fff" stroke="#151515" stroke-miterlimit="10" stroke-width="0.1984" fill-rule="evenodd"/>
            <polygon
                    points="1.63 0.411 1.885 0.581 2.169 0.751 2.169 1.091 2.169 1.46 1.885 1.63 1.63 1.8 1.346 1.63 1.091 1.46 1.091 1.091 1.091 0.751 1.346 0.581 1.63 0.411"
                    fill="#fff" stroke="#151515" stroke-miterlimit="10" stroke-width="0.1984" fill-rule="evenodd"/>
            <path d="M8.49,4.5213c.85,0,1.5307-.9922,1.5307-2.2111S9.34.0992,8.49.0992,6.9591,1.0913,6.9591,2.31s.68,2.2111,1.5307,2.2111Z"
                  fill="#151515" stroke="#151515" stroke-miterlimit="10" stroke-width="0.1984" fill-rule="evenodd"/>
            <path d="M8.5465,4.0677c.3968,0,.737-.4819.737-1.0488,0-.5953-.34-1.0772-.737-1.0772s-.7087.4819-.7087,1.0772c0,.5669.3118,1.0488.7087,1.0488Z"
                  fill="#fff" stroke="#151515" stroke-miterlimit="10" stroke-width="0.1984" fill-rule="evenodd"/>
            <polygon
                    points="8.49 0.411 8.745 0.581 9.028 0.751 9.028 1.091 9.028 1.46 8.745 1.63 8.49 1.8 8.206 1.63 7.951 1.46 7.951 1.091 7.951 0.751 8.206 0.581 8.49 0.411"
                    fill="#fff" stroke="#151515" stroke-miterlimit="10" stroke-width="0.1984" fill-rule="evenodd"/>
        </g>
    </g>
</svg>