<svg xmlns="http://www.w3.org/2000/svg" viewBox="0 0 10.2614 8.0504">
    <title>Recurso 11</title>
    <g id="Capa_2" data-name="Capa 2">
        <g id="Capa_1-2" data-name="Capa 1">
            <path d="M1.7575,7.937A1.5487,1.5487,0,0,0,3.2882,6.378a1.5307,1.5307,0,1,0-3.0614,0A1.5487,1.5487,0,0,0,1.7575,7.937Z"
                  fill="#151515" stroke="#151515" stroke-miterlimit="10" stroke-width="0.2268" fill-rule="evenodd"/>
            <path d="M1.7858,7.37A1.0464,1.0464,0,0,0,2.8346,6.3213,1.071,1.071,0,0,0,1.7858,5.2441,1.0767,1.0767,0,0,0,.7087,6.3213,1.0529,1.0529,0,0,0,1.7858,7.37Z"
                  fill="#fff" stroke="#151515" stroke-miterlimit="10" stroke-width="0.2268" fill-rule="evenodd"/>
            <path d="M1.6441,4.5354c.85,0,1.5307-.9921,1.5307-2.211S2.4945.1134,1.6441.1134.1134,1.1055.1134,2.3244s.68,2.211,1.5307,2.211Z"
                  fill="#151515" stroke="#151515" stroke-miterlimit="10" stroke-width="0.2268" fill-rule="evenodd"/>
            <path d="M1.7008,4.0819c.3968,0,.737-.4819.737-1.0488,0-.5953-.34-1.0772-.737-1.0772S.9921,2.4378.9921,3.0331c0,.5669.3118,1.0488.7087,1.0488Z"
                  fill="#fff" stroke="#151515" stroke-miterlimit="10" stroke-width="0.2268" fill-rule="evenodd"/>
            <polygon
                    points="1.644 0.425 1.899 0.595 2.183 0.765 2.183 1.106 2.183 1.474 1.899 1.644 1.644 1.814 1.361 1.644 1.106 1.474 1.106 1.106 1.106 0.765 1.361 0.595 1.644 0.425"
                    fill="#fff" stroke="#151515" stroke-miterlimit="10" stroke-width="0.2268" fill-rule="evenodd"/>
            <path d="M1.7008,3.3449h.17c.085,0,.17.0283.17.085V5.811c0,.0284-.085.0851-.17.0851h-.34c-.1134,0-.17-.0567-.17-.0851V3.515c0-.0851.1418-.17.34-.17Z"
                  fill="#151515" stroke="#151515" stroke-miterlimit="10" stroke-width="0.2268" fill-rule="evenodd"/>
            <path d="M8.6173,7.937A1.5487,1.5487,0,0,0,10.148,6.378a1.5307,1.5307,0,1,0-3.0614,0A1.5487,1.5487,0,0,0,8.6173,7.937Z"
                  fill="#151515" stroke="#151515" stroke-miterlimit="10" stroke-width="0.2268" fill-rule="evenodd"/>
            <path d="M8.6173,7.37A1.0529,1.0529,0,0,0,9.6945,6.3213a1.0631,1.0631,0,1,0-2.126,0A1.0464,1.0464,0,0,0,8.6173,7.37Z"
                  fill="#fff" stroke="#151515" stroke-miterlimit="10" stroke-width="0.2268" fill-rule="evenodd"/>
            <path d="M8.5039,4.5354c.85,0,1.5307-.9921,1.5307-2.211S9.3543.1134,8.5039.1134s-1.5307.9921-1.5307,2.211.68,2.211,1.5307,2.211Z"
                  fill="#151515" stroke="#151515" stroke-miterlimit="10" stroke-width="0.2268" fill-rule="evenodd"/>
            <path d="M8.5606,4.0819c.3969,0,.737-.4819.737-1.0488,0-.5953-.34-1.0772-.737-1.0772s-.7086.4819-.7086,1.0772c0,.5669.3118,1.0488.7086,1.0488Z"
                  fill="#fff" stroke="#151515" stroke-miterlimit="10" stroke-width="0.2268" fill-rule="evenodd"/>
            <polygon
                    points="8.504 0.425 8.759 0.595 9.043 0.765 9.043 1.106 9.043 1.474 8.759 1.644 8.504 1.814 8.22 1.644 7.965 1.474 7.965 1.106 7.965 0.765 8.22 0.595 8.504 0.425"
                    fill="#fff" stroke="#151515" stroke-miterlimit="10" stroke-width="0.2268" fill-rule="evenodd"/>
            <path d="M8.5606,3.3449h.17c.085,0,.17.0283.17.085V5.811c0,.0284-.0851.0851-.17.0851h-.34c-.1134,0-.1985-.0567-.1985-.0851V3.515c0-.0851.17-.17.3685-.17Z"
                  fill="#151515" stroke="#151515" stroke-miterlimit="10" stroke-width="0.2268" fill-rule="evenodd"/>
        </g>
    </g>
</svg>