<svg xmlns="http://www.w3.org/2000/svg" viewBox="0 0 7.969 11.5984">
    <title>Spit</title>
    <g id="Capa_2" data-name="Capa 2">
        <g id="Capa_1-2" data-name="Capa 1">
            <polygon points="6.203 1.481 7.819 2.162 7.28 3.38 5.664 2.672 6.203 1.481" fill="#fff" stroke="#fff"
                     stroke-miterlimit="10" stroke-width="0.2268" fill-rule="evenodd"/>
            <polygon points="4.474 2.218 5.891 2.814 5.551 3.636 4.134 3.012 4.474 2.218" fill="#fff" stroke="#fff"
                     stroke-miterlimit="10" stroke-width="0.2268" fill-rule="evenodd"/>
            <polygon points="3.085 7.406 2.971 9.418 2.83 11.431 1.582 10.892 0.307 10.325 1.696 8.88 3.085 7.406"
                     fill="#fff" stroke="#fff" stroke-miterlimit="10" stroke-width="0.2268" fill-rule="evenodd"/>
            <polygon points="3.793 2.303 6.316 3.409 4.417 7.803 1.894 6.697 3.793 2.303" fill="#fff" stroke="#fff"
                     stroke-miterlimit="10" stroke-width="0.2268" fill-rule="evenodd"/>
            <polygon points="1.441 10.07 2.433 8.795 3.397 7.519 2.688 7.207 1.979 6.895 1.724 8.483 1.441 10.07"
                     fill="#fff" stroke="#fff" stroke-miterlimit="10" stroke-width="0.2268" fill-rule="evenodd"/>
            <polygon points="3.141 10.694 3.17 7.321 4.389 7.859 3.141 10.694" fill="#fff" stroke="#fff"
                     stroke-miterlimit="10" stroke-width="0.2268"/>
            <polygon points="0.619 9.588 3.056 7.264 1.866 6.754 0.619 9.588" fill="#fff" stroke="#fff"
                     stroke-miterlimit="10" stroke-width="0.2268"/>
            <polygon points="2.234 10.354 3.227 9.078 4.19 7.803 3.482 7.519 2.773 7.207 2.49 8.766 2.234 10.354"
                     fill="#fff" stroke="#fff" stroke-miterlimit="10" stroke-width="0.2268" fill-rule="evenodd"/>
            <line x1="1.2139" y1="7.9726" x2="3.9352" y2="9.1632" fill="none" stroke="#fff" stroke-miterlimit="10"
                  stroke-width="0.4535"/>
            <line x1="1.4124" y1="7.5474" x2="4.1053" y2="8.738" fill="none" stroke="#fff" stroke-miterlimit="10"
                  stroke-width="0.4535"/>
            <line x1="1.5824" y1="7.1506" x2="4.2753" y2="8.3411" fill="none" stroke="#fff" stroke-miterlimit="10"
                  stroke-width="0.4535"/>
            <polygon points="3.708 0.376 5.466 1.141 4.927 2.36 3.198 1.595 3.708 0.376" fill="#fff" stroke="#fff"
                     stroke-miterlimit="10" stroke-width="0.2268" fill-rule="evenodd"/>
            <polygon points="4.786 0.858 6.628 1.651 6.09 2.87 4.275 2.077 4.786 0.858" fill="#fff" stroke="#fff"
                     stroke-miterlimit="10" stroke-width="0.2268" fill-rule="evenodd"/>
            <polygon points="6.061 1.226 7.677 1.935 7.167 3.154 5.551 2.445 6.061 1.226" fill="#afafb0"
                     stroke="#151515" stroke-miterlimit="10" stroke-width="0.2268" fill-rule="evenodd"/>
            <rect x="4.453" y="1.9304" width="0.8635" height="1.5112"
                  transform="translate(0.4918 6.1178) rotate(-66.8014)" fill="#afafb0" stroke="#afafb0"
                  stroke-miterlimit="10" stroke-width="0.2268"/>
            <polygon points="2.971 7.179 2.83 9.192 2.688 11.204 1.441 10.637 0.193 10.099 1.582 8.625 2.971 7.179"
                     fill="#a9a57c" stroke="#a9a57c" stroke-miterlimit="10" stroke-width="0.2268" fill-rule="evenodd"/>
            <rect x="1.5787" y="3.4489" width="4.7979" height="2.7544"
                  transform="translate(-2.0392 6.5324) rotate(-66.3369)" fill="#cfc672" stroke="#cfc672"
                  stroke-miterlimit="10" stroke-width="0.2268"/>
            <polygon points="1.327 9.843 2.291 8.568 3.283 7.292 2.575 6.98 1.866 6.669 1.582 8.256 1.327 9.843"
                     fill="#cfc672" stroke="#cfc672" stroke-miterlimit="10" stroke-width="0.2268" fill-rule="evenodd"/>
            <polygon points="3.028 10.467 3.056 7.094 4.275 7.632 3.028 10.467" fill="#cfc672" stroke="#cfc672"
                     stroke-miterlimit="10" stroke-width="0.2268"/>
            <polygon points="0.505 9.362 2.915 7.037 1.724 6.527 0.505 9.362" fill="#cfc672" stroke="#cfc672"
                     stroke-miterlimit="10" stroke-width="0.2268"/>
            <polygon points="2.121 10.127 3.085 8.851 4.077 7.576 3.368 7.264 2.631 6.952 2.376 8.54 2.121 10.127"
                     fill="#cfc672" stroke="#cfc672" stroke-miterlimit="10" stroke-width="0.2268" fill-rule="evenodd"/>
            <line x1="1.1005" y1="7.7458" x2="3.7935" y2="8.9364" fill="none" stroke="#a9a57c" stroke-miterlimit="10"
                  stroke-width="0.4535"/>
            <line x1="1.2706" y1="7.3206" x2="3.9919" y2="8.5112" fill="none" stroke="#a9a57c" stroke-miterlimit="10"
                  stroke-width="0.4535"/>
            <line x1="1.4407" y1="6.9238" x2="4.162" y2="8.1143" fill="none" stroke="#a9a57c" stroke-miterlimit="10"
                  stroke-width="0.4535"/>
            <polygon points="3.595 0.149 5.353 0.914 4.814 2.133 3.056 1.368 3.595 0.149" fill="#afafb0"
                     stroke="#151515" stroke-miterlimit="10" stroke-width="0.2268" fill-rule="evenodd"/>
            <polygon points="4.672 0.631 6.486 1.425 5.976 2.615 4.134 1.821 4.672 0.631" fill="#afafb0"
                     stroke="#151515" stroke-miterlimit="10" stroke-width="0.2268" fill-rule="evenodd"/>
        </g>
    </g>
</svg>